<svg width="100" height="222" viewBox="0 0 100 222" fill="none" xmlns="http://www.w3.org/2000/svg">
<g id="World">
<g id="Group">
<path id="Vector" d="M0.546753 50.4613C0.546753 23.1386 22.7796 0.905762 50.1023 0.905762C77.425 0.905762 99.6578 23.1386 99.6578 50.4613C99.6578 77.7839 77.425 100.017 50.1023 100.017C22.7796 100.017 0.546753 77.7839 0.546753 50.4613ZM96.0877 50.4613C96.0877 25.1058 75.4577 4.47592 50.1023 4.47592C24.7469 4.47592 4.11697 25.1058 4.11697 50.4613C4.11697 75.8167 24.7469 96.4466 50.1023 96.4466C75.4577 96.4466 96.0877 75.8167 96.0877 50.4613Z" fill="#478BF9"/>
<path id="Vector_2" d="M0.544089 171.607C0.544089 170.618 1.34558 169.827 2.32399 169.827C3.3024 169.827 4.10389 170.629 4.10389 171.607C4.10389 196.963 24.7338 217.593 50.0892 217.593C75.4447 217.593 96.0746 196.963 96.0746 171.607C96.0746 170.618 96.8761 169.827 97.8545 169.827C98.8329 169.827 99.6343 170.629 99.6343 171.607C99.6343 198.93 77.4015 221.163 50.0788 221.163C22.7561 221.163 0.523315 198.93 0.523315 171.607H0.544089Z" fill="#478BF9"/>
<g id="Group_2">
<path id="Vector_3" d="M98.1434 49.2644H76.4414V53.5423H98.1434V49.2644Z" fill="#478BF9"/>
<path id="Vector_4" d="M23.4207 49.2644H1.71863V53.5423H23.4207V49.2644Z" fill="#478BF9"/>
<path id="Vector_5" d="M52.4107 78.2419H48.1328V99.944H52.4107V78.2419Z" fill="#478BF9"/>
<path id="Vector_6" d="M52.4107 2.86255H48.1328V24.5645H52.4107V2.86255Z" fill="#478BF9"/>
<path id="Vector_7" d="M75.7859 24.2522C60.9432 9.40944 36.868 9.40944 22.0148 24.2522C7.17213 39.0949 7.17213 63.1701 22.0148 78.0232C36.8576 92.8659 60.9328 92.8659 75.7859 78.0232C90.6286 63.1805 90.6286 39.1053 75.7859 24.2522ZM56.2489 27.4684C60.5789 28.8112 64.4613 31.3196 67.4798 34.7337L68.0626 35.3894L67.2092 35.5872C64.9505 36.118 62.5357 36.5552 60.0376 36.8778L59.5901 36.9403L59.4652 36.5031C59.0488 35.0772 58.5596 33.7032 57.9975 32.4333C57.3001 30.8408 56.5195 29.446 55.666 28.2699L54.7292 26.9896L56.2489 27.458V27.4684ZM38.8768 49.9511L38.8977 49.4098C39.0018 46.1207 39.3661 42.9773 39.9906 40.0837L40.0843 39.6257L40.5526 39.6673C46.0276 40.1461 51.8773 40.1253 57.321 39.6153L57.7893 39.5737L57.8934 40.0317C58.5284 42.9565 58.8927 46.1103 58.9863 49.4098V49.9511H38.8873H38.8768ZM58.9863 52.3659V52.9072C58.8718 56.2067 58.5075 59.3605 57.8726 62.2853L57.7685 62.7433L57.3001 62.7017C51.8564 62.1916 46.0068 62.1812 40.5319 62.6496L40.0634 62.6912L39.9697 62.2333C39.3452 59.3396 38.9809 56.2067 38.8768 52.9072L38.856 52.3659H58.9655H58.9863ZM48.9316 26.5629C51.9605 26.5629 55.0415 30.4036 56.9671 36.5968L57.1648 37.2213L56.5091 37.2734C53.9486 37.4919 51.3048 37.6064 48.6506 37.6064C46.1837 37.6064 43.7273 37.5127 41.3333 37.315L40.6775 37.2629L40.8753 36.628C42.8009 30.4141 45.8923 26.5525 48.9316 26.5525V26.5629ZM30.2793 34.8481C33.3186 31.3821 37.2323 28.832 41.6143 27.4789L43.1444 27.0105L42.1972 28.3011C41.3437 29.4669 40.5527 30.872 39.8657 32.4542C39.314 33.7032 38.8144 35.0979 38.3773 36.5968L38.2524 37.0236L37.8048 36.9715C35.2859 36.6593 32.8503 36.2429 30.5604 35.7121L29.6964 35.5143L30.2793 34.8481ZM24.2007 49.389C24.4921 45.3297 25.7932 41.3744 27.9686 37.9291L28.1768 37.6064L28.5515 37.7001C31.2161 38.3767 34.0889 38.9179 37.1074 39.3031L37.6695 39.3759L37.5549 39.938C36.9304 42.9565 36.5766 46.1519 36.4829 49.4411V49.9511H24.1694L24.2111 49.389H24.2007ZM28.1768 64.7105L27.9686 64.3878C25.7932 60.953 24.4921 56.9873 24.2007 52.9279L24.159 52.3659H36.462V52.8759C36.5661 56.165 36.9305 59.3709 37.5446 62.379L37.6591 62.941L37.097 63.0139C34.0889 63.399 31.2057 63.9403 28.5411 64.6169L28.1664 64.7105H28.1768ZM41.6143 74.8485C37.2323 73.4954 33.3186 70.9453 30.2793 67.4792L29.6964 66.8131L30.5604 66.6153C32.8503 66.0949 35.2859 65.6681 37.8048 65.3558L38.2524 65.3038L38.3773 65.7306C38.8144 67.2294 39.314 68.6242 39.8657 69.8732C40.5631 71.4657 41.3437 72.8605 42.1972 74.0367L43.1444 75.3273L41.6143 74.8589V74.8485ZM48.9316 75.7541C45.8923 75.7541 42.8009 71.8925 40.8753 65.6785L40.6775 65.0436L41.3333 64.9916C46.2982 64.596 51.5858 64.6064 56.5091 65.0332L57.1648 65.0852L56.9671 65.7098C55.0311 71.8925 51.9501 75.7437 48.9316 75.7437V75.7541ZM67.4798 67.5833C64.4613 70.9973 60.5684 73.5058 56.2489 74.8485L54.7292 75.3169L55.666 74.0367C56.5195 72.8709 57.3001 71.4657 57.9975 69.8732C58.5492 68.593 59.0488 67.2294 59.4652 65.8034L59.5901 65.3663L60.0376 65.4287C62.5357 65.7514 64.9505 66.1885 67.2092 66.7194L68.0626 66.9276L67.4798 67.5833ZM73.6521 52.9279C73.3607 57.0289 72.0388 61.0363 69.8113 64.5127L69.6032 64.8354L69.2285 64.7418C66.5951 64.0444 63.7327 63.4927 60.735 63.0868L60.1729 63.0139L60.2874 62.4623C60.9119 59.4438 61.2762 56.2275 61.3699 52.8863V52.3763H73.6833L73.6417 52.9383L73.6521 52.9279ZM61.3907 49.9511V49.4411C61.2866 46.0999 60.9224 42.8732 60.2978 39.8651L60.1834 39.3135L60.7454 39.2406C63.7431 38.8347 66.595 38.283 69.2388 37.5856L69.6136 37.492L69.8217 37.8146C72.0491 41.2911 73.3815 45.288 73.6625 49.3994L73.7042 49.9615H61.4011L61.3907 49.9511Z" fill="#478BF9"/>
</g>
</g>
<g id="Group_3">
<path id="Vector_8" d="M0.484375 172.357V52.7616C0.484375 51.7728 1.28586 50.9817 2.26427 50.9817C3.24269 50.9817 4.04417 51.7832 4.04417 52.7616V172.357C4.04417 173.346 3.24269 174.137 2.26427 174.137C1.28586 174.137 0.484375 173.335 0.484375 172.357Z" fill="#478BF9"/>
</g>
<g id="Group_4">
<path id="Vector_9" d="M96.0352 172.628V53.0323C96.0352 52.0435 96.8366 51.2524 97.815 51.2524C98.7934 51.2524 99.5949 52.0539 99.5949 53.0323V172.628C99.5949 173.616 98.7934 174.407 97.815 174.407C96.8366 174.407 96.0352 173.606 96.0352 172.628Z" fill="#478BF9"/>
</g>
</g>
</svg>
