<svg width="100" height="100" viewBox="0 0 100 100" fill="none" xmlns="http://www.w3.org/2000/svg">
<g id="Soccer">
<path id="Vector" d="M49.8769 99.9324C22.5542 99.9324 0.331787 77.6996 0.331787 50.3874C0.331787 23.0751 22.5646 0.842285 49.8769 0.842285C77.1891 0.842285 99.422 23.0751 99.422 50.3874C99.422 77.6996 77.1891 99.9324 49.8769 99.9324ZM49.8769 4.14181C24.3757 4.14181 3.63131 24.8862 3.63131 50.3874C3.63131 75.8885 24.3757 96.6329 49.8769 96.6329C75.378 96.6329 96.1224 75.8885 96.1224 50.3874C96.1224 24.8862 75.378 4.14181 49.8769 4.14181Z" fill="#9DADF2"/>
<g id="Group">
<path id="Vector_2" d="M65.9512 19.4529C65.7014 19.4529 65.4516 19.4009 65.2226 19.2864C60.4242 16.9132 55.2615 15.7058 49.8803 15.7058C44.499 15.7058 39.3363 16.9132 34.538 19.2864C33.903 19.5986 33.1432 19.4737 32.6436 18.9741L24.1293 10.4599C23.765 10.0956 23.5985 9.59593 23.6609 9.08591C23.7234 8.57588 24.0148 8.12833 24.452 7.86811C32.1232 3.2675 40.9185 0.842285 49.8907 0.842285C58.8629 0.842285 67.6582 3.27791 75.3294 7.86811C75.7666 8.12833 76.058 8.57588 76.1205 9.08591C76.1829 9.59593 76.006 10.0956 75.6521 10.4599L67.1378 18.9741C66.8151 19.2864 66.3988 19.4529 65.9616 19.4529H65.9512ZM49.8803 12.4063C55.3656 12.4063 60.6532 13.5512 65.6077 15.8099L71.7697 9.64795C65.0665 6.03615 57.541 4.1418 49.8803 4.1418C42.2195 4.1418 34.6941 6.03615 27.991 9.64795L34.1528 15.8099C39.1074 13.5512 44.3949 12.4063 49.8803 12.4063Z" fill="#9DADF2"/>
<path id="Vector_3" d="M49.8785 99.9324C40.9062 99.9324 32.1109 97.4968 24.4398 92.9066C24.0026 92.6464 23.7112 92.1988 23.6487 91.6888C23.5863 91.1788 23.7632 90.6792 24.1171 90.3149L32.6314 81.8006C33.131 81.301 33.9012 81.1761 34.5258 81.4884C39.3241 83.8615 44.4868 85.0689 49.8681 85.0689C55.2493 85.0689 60.4121 83.8615 65.2105 81.4884C65.8454 81.1761 66.6052 81.301 67.1048 81.8006L75.6191 90.3149C75.9834 90.6792 76.1499 91.1788 76.0874 91.6888C76.025 92.1988 75.7335 92.6464 75.2964 92.9066C67.6252 97.5072 58.83 99.9324 49.8577 99.9324H49.8785ZM27.9892 91.1268C34.6923 94.7386 42.2177 96.6329 49.8785 96.6329C57.5392 96.6329 65.0647 94.7386 71.7679 91.1268L65.6059 84.9649C60.6514 87.2235 55.3638 88.3685 49.8785 88.3685C44.3931 88.3685 39.1056 87.2235 34.1511 84.9649L27.9892 91.1268Z" fill="#9DADF2"/>
<path id="Vector_4" d="M90.9825 76.6275C90.5453 76.6275 90.129 76.4609 89.8167 76.1487L81.3024 67.6344C80.8028 67.1348 80.6779 66.3646 80.9902 65.7401C83.3634 60.9417 84.5708 55.779 84.5708 50.3977C84.5708 45.0165 83.3634 39.8538 80.9902 35.0554C80.6779 34.4205 80.8028 33.6502 81.3024 33.161L89.8167 24.6468C90.181 24.2825 90.6806 24.1159 91.1906 24.1784C91.7007 24.2408 92.1482 24.5323 92.4084 24.9694C97.0091 32.6406 99.4343 41.4359 99.4343 50.4082C99.4343 59.3804 97.0091 68.1757 92.4084 75.8469C92.1482 76.284 91.7007 76.5755 91.1906 76.6379C91.1178 76.6379 91.0553 76.6379 90.9825 76.6379V76.6275ZM84.4563 66.1147L90.6182 72.2767C94.23 65.5735 96.1243 58.0481 96.1243 50.3873C96.1243 42.7266 94.23 35.2012 90.6182 28.498L84.4563 34.6599C86.715 39.6144 87.8599 44.902 87.8599 50.3873C87.8599 55.8727 86.715 61.1602 84.4563 66.1147Z" fill="#9DADF2"/>
<path id="Vector_5" d="M8.77293 76.6276C8.70007 76.6276 8.63762 76.6276 8.57516 76.6172C8.06514 76.5547 7.61759 76.2633 7.35737 75.8261C2.75675 68.1549 0.331543 59.3596 0.331543 50.3874C0.331543 41.4152 2.75675 32.6199 7.35737 24.9487C7.61759 24.5115 8.06514 24.2201 8.57516 24.1576C9.08519 24.0952 9.58481 24.2721 9.94911 24.626L18.4634 33.1403C18.963 33.6399 19.0879 34.4101 18.7756 35.0347C16.4024 39.833 15.195 44.9957 15.195 50.377C15.195 55.7582 16.4024 60.9209 18.7756 65.7193C19.0879 66.3542 18.963 67.1245 18.4634 67.6137L9.94911 76.1279C9.63685 76.4402 9.22051 76.6172 8.78335 76.6172L8.77293 76.6276ZM9.13721 28.4981C5.52541 35.2012 3.63106 42.7266 3.63106 50.3874C3.63106 58.0481 5.52541 65.5736 9.13721 72.2768L15.2992 66.1148C13.0405 61.1603 11.8955 55.8727 11.8955 50.3874C11.8955 44.902 13.0405 39.6145 15.2992 34.66L9.13721 28.4981Z" fill="#9DADF2"/>
</g>
<path id="Vector_6" d="M49.878 12.3958C28.9358 12.3958 11.8865 29.4347 11.8865 50.3873C11.8865 71.3399 28.9254 88.3788 49.878 88.3788C70.8306 88.3788 87.8695 71.3399 87.8695 50.3873C87.8695 29.4347 70.8306 12.3958 49.878 12.3958ZM71.2574 37.9073C73.0581 40.9883 74.151 44.3503 74.5049 47.9204C74.5153 48.0662 74.4528 48.2015 74.3279 48.2743C71.6112 49.9397 69.1756 51.9798 67.0731 54.3634C66.9794 54.4779 66.8233 54.5195 66.688 54.4674L61.9937 52.9374C61.8583 52.8958 61.7647 52.7813 61.7439 52.6356C61.213 48.7532 60.0056 45.0372 58.1529 41.5815C58.0904 41.4566 58.1009 41.3109 58.1841 41.1964L61.0881 37.1995C61.161 37.1059 61.2754 37.0434 61.3899 37.0434C61.4212 37.0434 61.442 37.0434 61.4732 37.0434C64.575 37.7304 67.7601 37.9594 70.9243 37.6991C71.07 37.6887 71.2053 37.7616 71.2781 37.8865L71.2574 37.9073ZM59.1833 53.2913C59.1937 53.3953 59.1625 53.4995 59.1 53.5723C56.6332 56.4139 53.4898 58.6934 50.0237 60.1506C49.93 60.1922 49.8364 60.1922 49.7427 60.1506C46.2766 58.683 43.1332 56.4035 40.6664 53.5723C40.6039 53.4995 40.5727 53.3953 40.5831 53.2913C41.0619 49.5233 42.2381 45.922 44.0596 42.5912C44.1116 42.4975 44.1949 42.4351 44.299 42.4143C46.1309 42.0292 48.0044 41.8314 49.8884 41.8314C51.7724 41.8314 53.6459 42.0292 55.4778 42.4143C55.5819 42.4351 55.6652 42.4975 55.7172 42.5912C57.5387 45.922 58.7045 49.5233 59.1937 53.2913H59.1833ZM58.6213 27.4571C58.6213 27.4571 58.7462 27.353 58.8711 27.353C58.9127 27.353 58.9648 27.353 59.0168 27.3842C62.8472 28.9039 66.2716 31.4019 68.9362 34.5974C69.0715 34.7535 69.0195 34.9201 68.9882 34.9825C68.9674 35.0345 68.8738 35.2011 68.6552 35.2011C66.2924 35.2323 63.9401 34.9617 61.6606 34.4205C61.5669 34.3996 61.4837 34.3372 61.4316 34.2539C60.2138 32.245 59.2354 30.08 58.5276 27.8318C58.4651 27.634 58.5796 27.4987 58.6317 27.4571H58.6213ZM44.6216 26.208C48.0669 25.469 51.6995 25.469 55.1448 26.208C55.2801 26.2393 55.3946 26.3434 55.4258 26.4787C56.1648 29.57 57.3618 32.5261 58.9751 35.2636C59.048 35.3885 59.0376 35.5445 58.9544 35.6694L56.0711 39.6456C55.9879 39.76 55.8422 39.8225 55.7069 39.7913C51.8973 39.021 47.8692 39.021 44.0596 39.7913C43.9243 39.8225 43.7785 39.76 43.6953 39.6456L40.8121 35.6694C40.7288 35.555 40.7184 35.3885 40.7913 35.2636C42.4046 32.5261 43.6016 29.57 44.3406 26.4787C44.3718 26.3434 44.4863 26.2393 44.6216 26.208ZM30.8302 34.5974C33.4948 31.3915 36.9193 28.8935 40.7497 27.3842C40.8017 27.3634 40.8537 27.353 40.8953 27.353C41.0306 27.353 41.1139 27.4259 41.1451 27.4571C41.1972 27.5091 41.3117 27.634 41.2493 27.8318C40.5415 30.0905 39.563 32.245 38.3452 34.2539C38.2932 34.3372 38.2099 34.3996 38.1162 34.4205C35.8368 34.9617 33.4844 35.2323 31.1217 35.2011C30.9031 35.2011 30.8094 35.0345 30.7886 34.9825C30.7574 34.9201 30.7053 34.7535 30.8406 34.5974H30.8302ZM28.5091 37.9073C28.5716 37.7928 28.6965 37.72 28.8318 37.72C28.8318 37.72 28.8525 37.72 28.863 37.72C32.0376 37.9698 35.2227 37.7512 38.314 37.0642C38.4597 37.033 38.6054 37.0851 38.6887 37.21L41.5928 41.2068C41.676 41.3213 41.6864 41.4775 41.624 41.592C39.7712 45.0476 38.5638 48.7635 38.033 52.6459C38.0121 52.7812 37.9185 52.8958 37.7832 52.9478L33.0889 54.4779C32.9535 54.5195 32.7974 54.4779 32.7037 54.3738C30.6012 51.9902 28.1656 49.9501 25.449 48.2847C25.3345 48.2118 25.2616 48.0766 25.272 47.9308C25.6259 44.3607 26.7188 40.9883 28.5195 37.9177L28.5091 37.9073ZM29.6436 63.5542C29.5812 63.752 29.4042 63.7936 29.3314 63.804C29.2585 63.804 29.0919 63.804 28.9774 63.6374C26.7604 60.1506 25.449 56.112 25.1887 51.9694C25.1783 51.7612 25.3136 51.6571 25.3761 51.6259C25.4385 51.5947 25.6051 51.5218 25.7716 51.6467C27.6972 53.0103 29.4459 54.6132 30.9759 56.3931C31.0384 56.4659 31.0696 56.5596 31.0592 56.6637C30.8718 59.0056 30.393 61.3268 29.6332 63.5646L29.6436 63.5542ZM39.9273 73.0573C36.6798 71.6313 33.8175 69.5392 31.4235 66.8537C31.3298 66.7497 31.2986 66.5935 31.3506 66.4686C32.5684 63.5334 33.3387 60.442 33.6405 57.2778C33.651 57.1321 33.755 57.0072 33.8903 56.9655L38.5326 55.4563C38.5326 55.4563 38.6055 55.4354 38.6471 55.4354C38.7512 55.4354 38.8449 55.4771 38.9177 55.5604C41.5199 58.4748 44.7778 60.8479 48.348 62.4197C48.4833 62.4821 48.5665 62.607 48.5665 62.7527V67.6344C48.5665 67.7801 48.4833 67.9154 48.348 67.9675C45.4335 69.2269 42.7272 70.9235 40.302 72.9949C40.198 73.0885 40.0418 73.1093 39.9169 73.0469L39.9273 73.0573ZM56.3001 74.0878C56.2897 74.1606 56.2377 74.3271 56.0295 74.3792C52.0118 75.3992 47.765 75.3992 43.7473 74.3792C43.5495 74.3271 43.4871 74.1606 43.4767 74.0878C43.4663 74.0149 43.4454 73.8484 43.6224 73.7131C45.5168 72.3079 47.5777 71.1317 49.7531 70.2261C49.8468 70.1845 49.9405 70.1845 50.0341 70.2261C52.1991 71.1317 54.2601 72.3079 56.1648 73.7131C56.3314 73.838 56.3209 74.0149 56.3105 74.0878H56.3001ZM68.3637 66.8642C65.9698 69.5496 63.1074 71.6313 59.8599 73.0573C59.7246 73.1198 59.5789 73.0885 59.4748 73.0052C57.0496 70.9339 54.3537 69.2373 51.4289 67.9779C51.2936 67.9154 51.2103 67.7905 51.2103 67.6448V62.7632C51.2103 62.6174 51.2936 62.4821 51.4289 62.4301C54.999 60.8584 58.2673 58.4852 60.8591 55.5708C60.9319 55.4875 61.0256 55.4459 61.1297 55.4459C61.1714 55.4459 61.2026 55.4459 61.2442 55.4667L65.8865 56.976C66.0218 57.0176 66.1259 57.1425 66.1363 57.2882C66.4381 60.4524 67.2084 63.5334 68.4262 66.479C68.4782 66.6039 68.4574 66.7601 68.3533 66.8642H68.3637ZM70.7994 63.6479C70.6849 63.8248 70.5079 63.8248 70.4455 63.8144C70.3726 63.8144 70.2061 63.7624 70.1332 63.5646C69.3838 61.3268 68.905 59.0056 68.7072 56.6637C68.7072 56.57 68.728 56.4659 68.7905 56.3931C70.3205 54.6132 72.0692 53.0207 73.9948 51.6467C74.0676 51.5947 74.1405 51.5739 74.203 51.5739C74.2862 51.5739 74.3487 51.6051 74.3903 51.6259C74.4528 51.6571 74.5985 51.7612 74.5777 51.9694C74.3175 56.112 73.006 60.1506 70.789 63.6374L70.7994 63.6479Z" fill="#9DADF2"/>
</g>
</svg>
