<svg width="100" height="100" viewBox="0 0 100 100" fill="none" xmlns="http://www.w3.org/2000/svg">
<g id="Shield">
<path id="Vector" d="M49.7325 100C37.0339 100 24.3458 95.1705 14.6762 85.5009C-4.65264 66.1721 -4.65264 34.7276 14.6762 15.3987C24.044 6.03095 36.4927 0.878662 49.7325 0.878662C62.9722 0.878662 75.421 6.03095 84.7888 15.3987C104.118 34.7276 104.118 66.1721 84.7888 85.5009C75.1296 95.1601 62.431 100 49.7325 100ZM17.2784 82.8988C35.1708 100.791 64.2838 100.791 82.1762 82.8988C100.069 65.0063 100.069 35.8933 82.1762 18.0009C73.5058 9.33049 61.9835 4.56336 49.7221 4.56336C37.4607 4.56336 25.9383 9.3409 17.2679 18.0009C-0.624513 35.8933 -0.624513 65.0063 17.2679 82.8988H17.2784Z" fill="#9DADF2"/>
<g id="Group">
<path id="Vector_2" d="M49.0769 68.9929C49.2538 69.4196 49.6701 69.6693 50.1073 69.6693C50.253 69.6693 50.3987 69.6382 50.5445 69.5861C54.0418 68.1185 57.2268 65.8493 59.7457 63.0182C60.1517 62.5602 60.11 61.8525 59.652 61.4466C59.194 61.0407 58.4862 61.0823 58.0803 61.5403C55.78 64.132 52.876 66.2033 49.6805 67.5356C49.1185 67.775 48.8478 68.4308 49.0872 68.9929H49.0769Z" fill="#9DADF2"/>
<path id="Vector_3" d="M68.6225 33.312L50.1368 25.9218C49.8661 25.8177 49.5747 25.8177 49.3041 25.9218L30.8183 33.312C30.3916 33.4785 30.121 33.8844 30.121 34.3424V47.5822C30.1418 59.8019 37.865 70.8455 49.3353 75.0506C49.4602 75.0922 49.5851 75.1131 49.7204 75.1131C49.8558 75.1131 49.9807 75.0922 50.1056 75.0506C61.5759 70.8351 69.299 59.8019 69.3199 47.5822V34.3424C69.3199 33.8844 69.0493 33.4785 68.6225 33.312ZM67.0925 47.5822C67.0716 58.6986 60.0978 68.8262 49.7308 72.8127C39.3638 68.8262 32.3796 58.6986 32.3588 47.5822V35.1022L49.7308 28.1597L67.0925 35.1022V47.5822Z" fill="#9DADF2"/>
<path id="Vector_4" d="M42.0083 35.0502C41.7376 34.9357 41.4358 34.9357 41.1548 35.0502L36.7519 36.8094C36.3252 36.9759 36.0546 37.3818 36.0546 37.8398V42.5341C36.0546 43.1482 36.5542 43.6478 37.1683 43.6478C37.7824 43.6478 38.282 43.1482 38.282 42.5341V38.5996L41.9771 37.1217C42.2581 37.0072 42.4663 36.7989 42.5912 36.5179C42.7056 36.2473 42.7056 35.9455 42.5912 35.6644C42.4767 35.3834 42.2685 35.1751 41.9979 35.0502H42.0083Z" fill="#9DADF2"/>
<path id="Vector_5" d="M77.8876 22.2998C70.3726 14.7743 60.3698 10.6421 49.7322 10.6421C39.0946 10.6421 29.1023 14.7847 21.5768 22.2998C6.05756 37.819 6.05756 63.0808 21.5768 78.6105C29.3417 86.3754 39.5317 90.2473 49.7322 90.2473C59.9326 90.2473 70.1227 86.365 77.8876 78.6105C93.4069 63.0913 93.4069 37.8295 77.8876 22.2998ZM72.3814 47.5823C72.4126 61.7068 63.3883 74.0619 49.9299 78.3399C49.805 78.3815 49.6697 78.3815 49.5344 78.3399C36.076 74.0619 27.0518 61.7068 27.083 47.5823V31.959C27.083 31.6987 27.2391 31.4594 27.4889 31.3553L49.4928 22.56C49.5657 22.5288 49.6489 22.5184 49.7322 22.5184C49.8154 22.5184 49.8988 22.5288 49.9716 22.56L71.9755 31.3657C72.2253 31.4594 72.3814 31.6987 72.3814 31.9694V47.5927V47.5823Z" fill="#9DADF2"/>
</g>
</g>
</svg>
