<svg xmlns="http://www.w3.org/2000/svg" viewBox="0 0 220.26 99.17"><defs><style>.cls-1{fill:#478bf9;}</style></defs><g id="Слой_2" data-name="Слой 2"><g id="Слой_1-2" data-name="Слой 1"><g id="World"><g id="Group"><path id="Vector" class="cls-1" d="M49.56,99.11A49.56,49.56,0,1,1,99.11,49.56,49.61,49.61,0,0,1,49.56,99.11Zm0-95.54a46,46,0,1,0,46,46A46,46,0,0,0,49.56,3.57Z"/><path id="Vector_2" data-name="Vector 2" class="cls-1" d="M170.7,99.11a1.78,1.78,0,0,1,0-3.56,46,46,0,1,0,0-92,1.78,1.78,0,0,1,0-3.56,49.56,49.56,0,1,1,0,99.11Z"/><g id="Group_2" data-name="Group 2"><path id="Vector_3" data-name="Vector 3" class="cls-1" d="M48.36,1.51V23.22h4.28V1.51Z"/><path id="Vector_4" data-name="Vector 4" class="cls-1" d="M48.36,76.24v21.7h4.28V76.24Z"/><path id="Vector_5" data-name="Vector 5" class="cls-1" d="M77.34,47.25v4.27H99V47.25Z"/><path id="Vector_6" data-name="Vector 6" class="cls-1" d="M2,47.25v4.27h21.7V47.25Z"/><path id="Vector_7" data-name="Vector 7" class="cls-1" d="M23.35,23.87a38,38,0,1,0,53.77,0A38,38,0,0,0,23.35,23.87Zm3.21,19.54a24.81,24.81,0,0,1,7.27-11.23l.65-.58.2.85A71,71,0,0,1,36,39.62l.06.45-.43.12a33.58,33.58,0,0,0-4.07,1.47A23,23,0,0,0,27.36,44l-1.28.94.47-1.52ZM49.05,60.78l-.55,0a52.2,52.2,0,0,1-9.32-1.09l-.46-.1,0-.46a94.87,94.87,0,0,0,0-16.77l0-.47.46-.11a52.08,52.08,0,0,1,9.37-1.09h.55v20.1Zm2.41-20.11H52a53.17,53.17,0,0,1,9.38,1.12l.46.1,0,.47a96.81,96.81,0,0,0-.06,16.77l0,.46-.46.1A52.32,52.32,0,0,1,52,60.78l-.54,0V40.67ZM25.66,50.73c0-3,3.84-6.11,10-8l.63-.2,0,.66c.22,2.56.33,5.2.33,7.86,0,2.46-.09,4.92-.29,7.31l0,.66-.64-.2c-6.21-1.92-10.07-5-10.07-8.05Zm8.28,18.65A24.89,24.89,0,0,1,26.57,58l-.47-1.53,1.3,1a21.36,21.36,0,0,0,4.15,2.33,34.29,34.29,0,0,0,4.14,1.49l.43.13,0,.44a73.31,73.31,0,0,1-1.26,7.25l-.2.86Zm14.54,6.08A24.92,24.92,0,0,1,37,71.69l-.32-.21.09-.37a72.34,72.34,0,0,0,1.61-8.56l.07-.56.56.11a54,54,0,0,0,9.51,1.07h.51V75.49l-.57,0Zm15.32-4-.32.21A24.84,24.84,0,0,1,52,75.46l-.56,0V63.2H52a56.55,56.55,0,0,0,9.5-1.09L62,62l.07.56a70.76,70.76,0,0,0,1.6,8.56l.09.37ZM73.94,58a24.73,24.73,0,0,1-7.37,11.34l-.66.58-.2-.86a73.31,73.31,0,0,1-1.26-7.25l0-.44.42-.13A34.47,34.47,0,0,0,69,59.79a22.9,22.9,0,0,0,4.16-2.33l1.29-1L74,58Zm.91-7.31c0,3-3.86,6.13-10.08,8.05l-.63.2,0-.66a92.57,92.57,0,0,1,0-15.17l.05-.66.62.2c6.19,1.94,10,5,10,8ZM66.68,32.18a24.85,24.85,0,0,1,7.26,11.23l.47,1.52L73.13,44A22.24,22.24,0,0,0,69,41.66a36.78,36.78,0,0,0-4.07-1.47l-.44-.12.06-.45c.33-2.5.76-4.91,1.29-7.17L66,31.6ZM52,26a24.78,24.78,0,0,1,11.59,3.84l.32.2-.09.38a70.55,70.55,0,0,0-1.66,8.49l-.07.56-.55-.11A55.16,55.16,0,0,0,52,38.29h-.51V26L52,26Zm-3,12.26h-.51A55.9,55.9,0,0,0,39,39.36l-.55.11-.08-.56a68.68,68.68,0,0,0-1.65-8.49L36.59,30l.32-.2A24.6,24.6,0,0,1,48.49,26l.57-.05V38.26Z"/></g></g><g id="Group_3" data-name="Group 3"><path id="Vector_8" data-name="Vector 8" class="cls-1" d="M171.45,99.17H51.86a1.78,1.78,0,0,1,0-3.56H171.45a1.78,1.78,0,0,1,0,3.56Z"/></g><g id="Group_4" data-name="Group 4"><path id="Vector_9" data-name="Vector 9" class="cls-1" d="M171.72,3.62H52.13a1.78,1.78,0,0,1,0-3.56H171.72a1.78,1.78,0,1,1,0,3.56Z"/></g></g></g></g></svg>