<?xml version="1.0" encoding="utf-8"?>
<!-- Generator: Adobe Illustrator 24.1.2, SVG Export Plug-In . SVG Version: 6.00 Build 0)  -->
<svg version="1.1" id="Слой_1" xmlns="http://www.w3.org/2000/svg" xmlns:xlink="http://www.w3.org/1999/xlink" x="0px" y="0px"
	 viewBox="0 0 100 221" style="enable-background:new 0 0 100 221;" xml:space="preserve">
<style type="text/css">
	.st0{fill:#FFFFFF;}
	.st1{fill:#110A1D;}
</style>
<g id="_x24_">
	<g id="Group">
		<path id="Vector_2" class="st0" d="M100.3,50.2c0,1-0.8,1.8-1.8,1.8c-1,0-1.8-0.8-1.8-1.8c0-25.4-20.6-46-46-46s-46,20.6-46,46
			C4.8,51.2,4,52,3,52s-1.8-0.8-1.8-1.8c0-27.3,22.2-49.6,49.6-49.6S100.4,22.9,100.3,50.2L100.3,50.2z"/>
	</g>
	<g id="Crown">
		<g id="Group_1_">
			<path id="Vector_1_" class="st0" d="M15.3,206.6c-19.5-19.5-19.5-51.2,0-70.7c19.5-19.5,51.2-19.5,70.7,0
				c19.5,19.5,19.5,51.2,0,70.7S34.8,226.1,15.3,206.6z M83.7,138.3c-18.2-18.2-47.8-18.2-66,0c-18.2,18.2-18.2,47.8,0,66
				c18.2,18.2,47.8,18.2,66,0C101.9,186.1,101.9,156.5,83.7,138.3z"/>
			<g id="Group_2_1_">
				<path id="Vector_2_1_" class="st0" d="M84.2,160.7c-0.2-0.2-0.3-0.4-0.4-0.6c-1.7-5.1-4.6-9.7-8.4-13.5
					c-3.8-3.8-8.4-6.7-13.5-8.4c-0.7-0.2-1.1-0.9-1.1-1.6v-12.1c0-0.5,0.2-1,0.6-1.3c0.4-0.3,0.9-0.4,1.4-0.3
					c8.7,2.2,16.8,6.7,23.2,13.1c6.4,6.4,10.9,14.4,13.1,23.2c0.1,0.5,0,1-0.3,1.4c-0.3,0.4-0.8,0.6-1.3,0.6H85.4
					C84.9,161.2,84.5,161,84.2,160.7L84.2,160.7z M77.8,144.2c3.9,3.9,6.9,8.5,8.8,13.7h8.8c-2.2-7.4-6.2-14.1-11.7-19.5
					c-5.5-5.5-12.2-9.5-19.5-11.7v8.8C69.3,137.3,73.9,140.3,77.8,144.2L77.8,144.2z"/>
				<path id="Vector_3_1_" class="st0" d="M15.3,206.6c-6.4-6.4-10.9-14.4-13.1-23.2c-0.1-0.5,0-1,0.3-1.4c0.3-0.4,0.8-0.6,1.3-0.6
					H16c0.7,0,1.4,0.5,1.6,1.1c1.7,5.1,4.6,9.7,8.4,13.5c3.8,3.8,8.4,6.7,13.5,8.4c0.7,0.2,1.1,0.9,1.1,1.6v12.1
					c0,0.5-0.2,1-0.6,1.3c-0.4,0.3-0.9,0.4-1.4,0.3C29.7,217.6,21.7,213.1,15.3,206.6L15.3,206.6z M6,184.7
					c2.2,7.4,6.2,14.1,11.7,19.5c5.5,5.5,12.2,9.5,19.5,11.7v-8.8c-5.1-1.9-9.7-4.9-13.7-8.8c-3.9-3.9-6.9-8.5-8.8-13.6L6,184.7
					L6,184.7z"/>
				<path id="Vector_4_1_" class="st0" d="M61.3,219.3c-0.3-0.3-0.5-0.7-0.5-1.2V206c0-0.7,0.5-1.4,1.1-1.6
					c5.1-1.7,9.7-4.6,13.5-8.4c3.8-3.8,6.7-8.4,8.4-13.5c0.2-0.7,0.9-1.1,1.6-1.1h12.1c0.5,0,1,0.2,1.3,0.6c0.3,0.4,0.4,0.9,0.3,1.4
					c-2.2,8.8-6.7,16.8-13.1,23.2c-6.4,6.4-14.4,10.9-23.2,13.1c-0.5,0.1-1,0-1.4-0.3C61.4,219.4,61.3,219.4,61.3,219.3L61.3,219.3z
					 M64.1,207.2v8.8c7.4-2.2,14.1-6.2,19.5-11.7c5.5-5.5,9.5-12.2,11.7-19.5h-8.8c-1.9,5.1-4.9,9.7-8.8,13.6
					C73.9,202.3,69.3,205.3,64.1,207.2z"/>
				<path id="Vector_5_1_" class="st0" d="M2.6,160.7c0,0-0.1-0.1-0.1-0.2c-0.3-0.4-0.4-0.9-0.3-1.4c2.2-8.7,6.7-16.8,13.1-23.2
					c6.4-6.4,14.4-10.9,23.2-13.1c0.5-0.1,1,0,1.4,0.3c0.4,0.3,0.6,0.8,0.6,1.3v12.1c0,0.7-0.5,1.4-1.1,1.6
					c-5.1,1.7-9.7,4.6-13.5,8.4c-3.8,3.8-6.7,8.4-8.4,13.5c-0.2,0.7-0.9,1.1-1.6,1.1H3.8C3.4,161.2,2.9,161,2.6,160.7L2.6,160.7z
					 M37.2,126.6c-7.4,2.2-14.1,6.2-19.5,11.7c-5.5,5.5-9.5,12.2-11.7,19.5h8.8c1.9-5.1,4.9-9.7,8.8-13.7c3.9-3.9,8.5-6.9,13.7-8.8
					V126.6z"/>
			</g>
			<path id="Vector_6_1_" class="st0" d="M77.8,144.2c-14.9-14.9-39.3-14.9-54.2,0c-14.9,14.9-14.9,39.3,0,54.2
				c14.9,14.9,39.2,14.9,54.2,0C92.7,183.5,92.7,159.1,77.8,144.2z"/>
			<g id="Group_3_1_">
				<path id="Vector_7_1_" class="st1" d="M64.5,185L37,185.2c-1.2,0-2.1,1-2.1,2.1l0,1c0,1.2,1,2.1,2.1,2.1l27.5-0.2
					c1.2,0,2.1-1,2.1-2.1l0-1C66.6,185.9,65.7,185,64.5,185z"/>
				<path id="Vector_8" class="st1" d="M40.7,168.4c-0.3,0-0.6-0.1-0.9-0.2l-2.1-1c-0.9-0.5-1.4-1.6-1-2.5l1-2.5
					c0.3-0.7,1-1.2,1.8-1.2c0.3,0,0.7,0.1,1,0.3l2.6,1.5c0.5,0.3,0.8,0.7,0.9,1.3c0.1,0.5,0,1.1-0.3,1.6l-1.4,2
					C42,168,41.4,168.4,40.7,168.4L40.7,168.4z"/>
				<path id="Vector_9" class="st1" d="M60.5,168.2c-0.6,0-1.3-0.3-1.6-0.8l-1.4-2c-0.3-0.5-0.4-1-0.3-1.6c0.1-0.5,0.5-1,0.9-1.3
					l2.6-1.5c0.3-0.2,0.6-0.3,1-0.3c0.8,0,1.5,0.5,1.8,1.2l1,2.4c0.4,1,0,2.1-0.9,2.5l-2.2,1.1C61.1,168.2,60.8,168.2,60.5,168.2
					L60.5,168.2z"/>
				<path id="Vector_10" class="st1" d="M38.6,183.3c-1.2,0-2.3-0.7-2.7-1.9l-4.6-12.6c-0.3,0.1-0.6,0.3-0.9,0.3
					c-0.4,0.1-0.8,0.1-1.1,0.1c-0.2,0-0.4,0-0.7,0c-2.4-0.3-4.2-2.4-4.2-4.8c0-2.7,2.1-4.9,4.8-4.9s4.9,2.1,4.9,4.8
					c0,0.6-0.1,1.2-0.3,1.8c-0.1,0.3-0.3,0.6-0.4,0.9l8.7,4.2l6.7-9.7c-0.3-0.1-0.5-0.3-0.8-0.4c-0.5-0.3-0.9-0.7-1.2-1.2
					c-0.6-0.8-0.9-1.8-0.9-2.8c0-2.7,2.1-4.9,4.8-4.9c0.1,0,0.2,0,0.4,0c2.4,0.2,4.3,2.1,4.5,4.5c0.1,1.1-0.2,2.2-0.9,3.1
					c-0.3,0.5-0.8,0.9-1.2,1.2c-0.3,0.2-0.5,0.3-0.8,0.4l6.8,9.6l8.6-4.3c-0.2-0.3-0.3-0.6-0.4-1c-0.1-0.4-0.2-0.8-0.2-1.3
					c0-0.2,0-0.4,0-0.6c0.3-2.4,2.3-4.3,4.8-4.3c2.7,0,4.9,2.1,4.9,4.8c0,2.6-2,4.7-4.5,4.9l-0.3,0c-0.5,0-1-0.1-1.4-0.2
					c-0.3-0.1-0.6-0.2-0.9-0.4l-4.3,12.4c-0.4,1.1-1.5,1.9-2.7,1.9L38.6,183.3L38.6,183.3z"/>
			</g>
		</g>
		<g id="Group_4_1_">
			<path id="Vector_11" class="st0" d="M100.3,50.4V170c0,1-0.8,1.8-1.8,1.8s-1.8-0.8-1.8-1.8V50.4c0-1,0.8-1.8,1.8-1.8
				S100.3,49.4,100.3,50.4z"/>
		</g>
		<g id="Group_5">
			<path id="Vector_12" class="st0" d="M4.7,50.2v119.6c0,1-0.8,1.8-1.8,1.8c-1,0-1.8-0.8-1.8-1.8V50.2c0-1,0.8-1.8,1.8-1.8
				C3.9,48.4,4.7,49.2,4.7,50.2z"/>
		</g>
	</g>
</g>
</svg>
