<svg width="100" height="100" viewBox="0 0 100 100" fill="none" xmlns="http://www.w3.org/2000/svg">
<g id="Timer">
<path id="Vector" d="M49.6153 99.4071C36.9167 99.4071 24.2286 94.5775 14.559 84.9078C-4.76983 65.579 -4.76983 34.1345 14.559 14.8057C23.9268 5.43793 36.3755 0.285645 49.6153 0.285645C62.8551 0.285645 75.3038 5.43793 84.6716 14.8057C104 34.1345 104 65.579 84.6716 84.9078C75.0124 94.5671 62.3138 99.4071 49.6153 99.4071ZM17.1612 82.3057C35.0536 100.198 64.1665 100.198 82.059 82.3057C99.9514 64.4132 99.9514 35.3003 82.059 17.4079C73.3886 8.73747 61.8662 3.97028 49.6049 3.97028C37.3435 3.97028 25.8211 8.74788 17.1507 17.4079C-0.7417 35.3003 -0.7417 64.4132 17.1507 82.3057H17.1612Z" fill="#7DDACF"/>
<g id="Group">
<path id="Vector_2" d="M51.4497 39.4224L42.2693 52.2874H47.7754V61.4678L56.9559 48.6131H51.4497V39.4224Z" fill="#7DDACF"/>
<path id="Vector_3" d="M49.6055 32.2715C39.5508 32.2715 31.3904 40.4319 31.3904 50.4866C31.3904 60.5413 39.5508 68.6809 49.6055 68.6809C59.6602 68.6809 67.8206 60.5205 67.8206 50.4866C67.8206 40.4527 59.6602 32.2715 49.6055 32.2715ZM49.6055 66.4326C40.779 66.4326 33.6178 59.2715 33.6178 50.445C33.6178 41.6185 40.779 34.4573 49.6055 34.4573C58.432 34.4573 65.5932 41.6185 65.5932 50.445C65.5932 59.2715 58.432 66.4326 49.6055 66.4326Z" fill="#7DDACF"/>
<path id="Vector_4" d="M77.7625 21.7068C70.2474 14.1813 60.2447 10.0491 49.6071 10.0491C38.9694 10.0491 28.9772 14.1917 21.4517 21.7068C5.93244 37.226 5.93244 62.4878 21.4517 78.0175C29.2166 85.7823 39.4066 89.6647 49.6071 89.6647C59.8075 89.6647 69.9976 85.7823 77.7625 78.0175C93.2817 62.4982 93.2817 37.2364 77.7625 21.7068ZM49.6071 75.1968C35.9926 75.1968 24.9074 64.1115 24.9074 50.497C24.9074 44.4808 27.062 38.9643 30.6426 34.6551L27.624 31.6366C26.7601 30.7727 26.7601 29.3675 27.624 28.4932C28.4879 27.6189 29.8931 27.6293 30.7675 28.4932L33.786 31.5117C37.5331 28.3787 42.2481 26.3178 47.39 25.8806V23.8405H45.35C43.5493 23.8405 42.0608 22.3521 42.0608 20.5514V18.834C42.0608 17.0125 43.5493 15.5449 45.35 15.5449H53.8851C55.6857 15.5449 57.1742 17.0125 57.1742 18.834V20.5514C57.1742 22.3521 55.6857 23.8405 53.8851 23.8405H51.8449V25.8806C56.9972 26.3282 61.7019 28.3891 65.449 31.5117L68.4675 28.4932C69.3314 27.6293 70.7366 27.6293 71.6109 28.4932C72.4748 29.3571 72.4748 30.7622 71.6109 31.6366L68.5924 34.6551C72.173 38.9643 74.3276 44.4704 74.3276 50.497C74.3276 64.1115 63.2424 75.1968 49.6279 75.1968H49.6071Z" fill="#7DDACF"/>
</g>
</g>
</svg>
