<svg width="100" height="100" viewBox="0 0 100 100" fill="none" xmlns="http://www.w3.org/2000/svg">
<g id="M">
<path id="Vector" d="M50.3967 99.6208C23.074 99.6208 0.851562 77.3879 0.851562 50.0756C0.851562 22.7633 23.0844 0.530518 50.3967 0.530518C77.709 0.530518 99.9418 22.7633 99.9418 50.0756C99.9418 77.3879 77.709 99.6208 50.3967 99.6208ZM50.3967 3.83004C24.8955 3.83004 4.15108 24.5744 4.15108 50.0756C4.15108 75.5768 24.8955 96.3212 50.3967 96.3212C75.8979 96.3212 96.6423 75.5768 96.6423 50.0756C96.6423 24.5744 75.8979 3.83004 50.3967 3.83004Z" fill="#478BF9"/>
<g id="Group">
<path id="Vector_2" d="M82.7174 14.7288L67.3792 30.0671L70.3968 33.0848L85.7351 17.7465L82.7174 14.7288Z" fill="#478BF9"/>
<path id="Vector_3" d="M29.9242 67.5206L14.5859 82.8589L17.6035 85.8765L32.9418 70.5382L29.9242 67.5206Z" fill="#478BF9"/>
<path id="Vector_4" d="M70.8616 67.5356L67.844 70.5532L83.1822 85.8915L86.1999 82.8738L70.8616 67.5356Z" fill="#478BF9"/>
<path id="Vector_5" d="M17.5999 14.2671L14.5823 17.2847L29.9132 32.6156L32.9308 29.598L17.5999 14.2671Z" fill="#478BF9"/>
</g>
<g id="Group_2">
<path id="Vector_6" d="M62.4808 51.4078C63.48 50.4085 63.48 48.7952 62.4808 47.8064L60.3574 45.6934C59.3582 44.6942 57.7449 44.6942 56.7561 45.6934L55.6111 46.8384L54.2892 45.5164C53.29 44.5172 51.6766 44.5172 50.6878 45.5164L49.5429 46.6718L48.221 45.3395C47.2217 44.3403 45.6084 44.3403 44.6195 45.3395L37.5937 52.3653C37.5417 52.4174 37.5417 52.5007 37.5937 52.5631C38.5305 53.4999 40.0606 53.4999 41.0078 52.5631L45.5355 48.0354C46.0247 47.5462 46.8158 47.5462 47.305 48.0354L47.6381 48.3684C47.7005 48.4308 47.7005 48.5245 47.6381 48.587L43.8597 52.3653C43.8077 52.4174 43.8077 52.5007 43.8597 52.5631C44.7965 53.4999 46.3266 53.4999 47.2738 52.5631L51.6142 48.2227C52.1034 47.7335 52.8945 47.7335 53.3837 48.2227L53.7167 48.5558C53.7688 48.6078 53.7688 48.6911 53.7167 48.7536L50.0737 52.3966C50.0217 52.4486 50.0217 52.5319 50.0737 52.5944C51.0105 53.5311 52.5405 53.5311 53.4877 52.5944L57.6824 48.3997C58.1716 47.9104 58.9626 47.9104 59.4519 48.3997L60.1701 49.1178C60.4511 49.3989 60.4511 49.8673 60.1701 50.1483L60.0556 50.2628C59.7745 50.5438 59.3062 50.5438 59.0251 50.2628L58.0987 49.3365C58.0467 49.2844 57.9634 49.2844 57.901 49.3365L56.2981 50.9394C56.246 50.9914 56.246 51.0747 56.2981 51.1371L57.7449 52.5839C58.7441 53.5832 60.3574 53.5832 61.3462 52.5839L62.4912 51.439L62.4808 51.4078Z" fill="#478BF9"/>
<path id="Vector_7" d="M50.3978 12.084C29.414 12.084 12.4062 29.0917 12.4062 50.0755C12.4062 71.0593 29.414 88.067 50.3978 88.067C71.3816 88.067 88.3893 71.0593 88.3893 50.0755C88.3893 29.0917 71.3816 12.084 50.3978 12.084ZM51.9486 23.8145C58.0481 24.1684 63.5855 26.604 67.8738 30.4136L62.3885 35.8989C59.5261 33.4737 55.9143 31.9021 51.9486 31.569V23.8145ZM48.8572 23.8145V31.569C44.8916 31.8916 41.2798 33.4737 38.4174 35.8989L32.932 30.4136C37.2204 26.604 42.7578 24.1684 48.8572 23.8145ZM30.7463 32.5994L36.2316 38.0848C33.8064 40.9472 32.2347 44.5589 31.9016 48.5246H24.1472C24.5011 42.4252 26.9367 36.8878 30.7463 32.5994ZM24.1472 51.616H31.9016C32.2243 55.5817 33.8064 59.1935 36.2316 62.0559L30.7463 67.5412C26.9367 63.2529 24.5011 57.7155 24.1472 51.616ZM48.8572 76.3261C42.7578 75.9722 37.2204 73.5366 32.932 69.727L38.4174 64.2416C41.2798 66.6669 44.8916 68.2386 48.8572 68.5717V76.3261ZM34.4309 50.0651C34.4309 41.249 41.5817 34.0983 50.3978 34.0983C59.2139 34.0983 66.3646 41.249 66.3646 50.0651C66.3646 58.8812 59.2139 66.032 50.3978 66.032C41.5817 66.032 34.4309 58.8812 34.4309 50.0651ZM51.9486 76.3261V68.5717C55.9143 68.249 59.5261 66.6669 62.3885 64.2416L67.8738 69.727C63.5855 73.5366 58.0481 75.9722 51.9486 76.3261ZM70.0596 67.5412L64.5743 62.0559C66.9995 59.1935 68.5712 55.5817 68.9043 51.616H76.6587C76.3048 57.7155 73.8692 63.2529 70.0596 67.5412ZM68.9043 48.5246C68.5816 44.5589 66.9995 40.9472 64.5743 38.0848L70.0596 32.5994C73.8692 36.8878 76.3048 42.4252 76.6587 48.5246H68.9043Z" fill="#478BF9"/>
</g>
</g>
</svg>
