<svg xmlns="http://www.w3.org/2000/svg" viewBox="0 0 220.63 99.95"><defs><style>.cls-1{fill:#fff;}.cls-2{fill:#110a1d;}</style></defs><g id="Слой_2" data-name="Слой 2"><g id="Слой_1-2" data-name="Слой 1"><g id="_" data-name="$"><g id="Group"><path id="Vector_2" data-name="Vector 2" class="cls-1" d="M49.6.32a1.81,1.81,0,0,1,0,3.61,46,46,0,0,0,0,92,1.65,1.65,0,0,1,1.8,1.7,1.78,1.78,0,0,1-1.8,1.79,49.55,49.55,0,1,1,0-99.1Z"/></g><g id="Crown"><g id="Group-2" data-name="Group"><path id="Vector" class="cls-1" d="M206,85.32a50,50,0,1,1,0-70.69A50,50,0,0,1,206,85.32ZM137.7,16.93a46.67,46.67,0,1,0,66,0A46.72,46.72,0,0,0,137.7,16.93Z"/><g id="Group_2" data-name="Group 2"><path id="Vector_2-2" data-name="Vector 2" class="cls-1" d="M160.1,16.43a2.09,2.09,0,0,1-.6.4,35.05,35.05,0,0,0-21.9,21.9,1.62,1.62,0,0,1-1.6,1.1H123.9a1.61,1.61,0,0,1-1.3-.6,1.74,1.74,0,0,1-.3-1.4,50.32,50.32,0,0,1,13.1-23.2,49.65,49.65,0,0,1,23.2-13.1,1.74,1.74,0,0,1,1.4.3,1.61,1.61,0,0,1,.6,1.3V15.22a1.68,1.68,0,0,1-.5,1.21Zm-16.5,6.39A37.5,37.5,0,0,1,157.3,14V5.22a45.4,45.4,0,0,0-19.5,11.7,46.6,46.6,0,0,0-11.7,19.5h8.8a36.42,36.42,0,0,1,8.7-13.6Z"/><path id="Vector_3" data-name="Vector 3" class="cls-1" d="M206,85.32a49.84,49.84,0,0,1-23.2,13.11,1.74,1.74,0,0,1-1.4-.3,1.61,1.61,0,0,1-.6-1.3V84.63A1.77,1.77,0,0,1,181.9,83a35,35,0,0,0,21.9-21.89,1.61,1.61,0,0,1,1.6-1.1h12.1a1.61,1.61,0,0,1,1.3.6,1.74,1.74,0,0,1,.3,1.4A48,48,0,0,1,206,85.32Zm-21.9,9.31a45.32,45.32,0,0,0,19.5-11.71,46.6,46.6,0,0,0,11.7-19.5h-8.8a39.27,39.27,0,0,1-8.8,13.71,38.23,38.23,0,0,1-13.6,8.8v8.7Z"/><path id="Vector_4" data-name="Vector 4" class="cls-1" d="M218.7,39.33a1.66,1.66,0,0,1-1.2.5H205.4a1.76,1.76,0,0,1-1.6-1.1,35.05,35.05,0,0,0-21.9-21.9,1.62,1.62,0,0,1-1.1-1.6V3.13a1.61,1.61,0,0,1,.6-1.3,1.74,1.74,0,0,1,1.4-.3,49.7,49.7,0,0,1,36.3,36.3,1.74,1.74,0,0,1-.3,1.4s0,.1-.1.1Zm-12.1-2.8h8.8A45.4,45.4,0,0,0,203.7,17a46.6,46.6,0,0,0-19.5-11.7v8.8a38,38,0,0,1,13.6,8.8A36.15,36.15,0,0,1,206.6,36.53Z"/><path id="Vector_5" data-name="Vector 5" class="cls-1" d="M160.1,98a.35.35,0,0,1-.2.1,1.73,1.73,0,0,1-1.4.29,49.71,49.71,0,0,1-36.3-36.29,1.77,1.77,0,0,1,.3-1.41,1.6,1.6,0,0,1,1.3-.59h12.1a1.77,1.77,0,0,1,1.6,1.09,35.05,35.05,0,0,0,21.9,21.9,1.62,1.62,0,0,1,1.1,1.6V96.83a1.39,1.39,0,0,1-.4,1.2ZM126,63.42a45.4,45.4,0,0,0,11.7,19.5,46.6,46.6,0,0,0,19.5,11.7v-8.8A39.23,39.23,0,0,1,143.5,77a37.5,37.5,0,0,1-8.8-13.7H126Z"/></g><path id="Vector_6" data-name="Vector 6" class="cls-1" d="M143.6,22.82a38.33,38.33,0,1,0,54.2,0A38.45,38.45,0,0,0,143.6,22.82Z"/><g id="Group_3" data-name="Group 3"><path id="Vector_7" data-name="Vector 7" class="cls-2" d="M184.4,36.13l.2,27.5a2.1,2.1,0,0,0,2.1,2.09h1a2.11,2.11,0,0,0,2.1-2.09l-.2-27.5a2.11,2.11,0,0,0-2.1-2.1h-1A2.05,2.05,0,0,0,184.4,36.13Z"/><path id="Vector_8" data-name="Vector 8" class="cls-2" d="M167.8,59.92a3,3,0,0,1-.2.91l-1,2.09a2,2,0,0,1-2.5,1l-2.5-1a2,2,0,0,1-1.2-1.79,1.9,1.9,0,0,1,.3-1l1.5-2.6a1.76,1.76,0,0,1,1.3-.9,2.37,2.37,0,0,1,1.6.29l2,1.41a2.37,2.37,0,0,1,.7,1.59Z"/><path id="Vector_9" data-name="Vector 9" class="cls-2" d="M167.6,40.13a1.94,1.94,0,0,1-.8,1.59l-2,1.41a2.22,2.22,0,0,1-1.6.29,2.33,2.33,0,0,1-1.3-.9l-1.5-2.6a1.65,1.65,0,0,1-.3-1,2,2,0,0,1,1.2-1.79l2.4-1a1.91,1.91,0,0,1,2.5.9l1.1,2.2a1.1,1.1,0,0,1,.3.9Z"/><path id="Vector_10" data-name="Vector 10" class="cls-2" d="M182.7,62a2.79,2.79,0,0,1-1.9,2.7l-12.6,4.6a3.18,3.18,0,0,1,.3.9,4.48,4.48,0,0,1,.1,1.1V72a4.87,4.87,0,1,1-4.9-5.5,5.66,5.66,0,0,1,1.8.3c.3.09.6.3.9.4l4.2-8.7-9.7-6.7c-.1.3-.3.5-.4.8a3.45,3.45,0,0,1-1.2,1.2,4.75,4.75,0,0,1-2.8.9,4.82,4.82,0,0,1-4.9-4.8v-.4a4.92,4.92,0,0,1,4.5-4.5,4.37,4.37,0,0,1,3.1.9,4.56,4.56,0,0,1,1.2,1.2,3,3,0,0,1,.4.8l9.6-6.8-4.3-8.6a3.22,3.22,0,0,1-1,.4,5.07,5.07,0,0,1-1.3.2h-.6a4.88,4.88,0,0,1-4.3-4.81,4.83,4.83,0,0,1,4.8-4.9,4.91,4.91,0,0,1,4.9,4.5v.3a6.07,6.07,0,0,1-.2,1.41,3.71,3.71,0,0,1-.4.9l12.4,4.3a2.93,2.93,0,0,1,1.9,2.7l.4,24.5Z"/></g></g><g id="Group_4" data-name="Group 4"><path id="Vector_11" data-name="Vector 11" class="cls-1" d="M49.8.32H169.4a1.81,1.81,0,0,1,0,3.61H49.8a1.81,1.81,0,0,1,0-3.61Z"/></g><g id="Group_5" data-name="Group 5"><path id="Vector_12" data-name="Vector 12" class="cls-1" d="M49.6,95.93H169.2a1.8,1.8,0,1,1,0,3.6H49.6a1.8,1.8,0,0,1,0-3.6Z"/></g></g></g></g></g></svg>