<svg width="100" height="100" viewBox="0 0 100 100" fill="none" xmlns="http://www.w3.org/2000/svg">
<g id="M">
<path id="Vector" d="M49.545 99.1234C22.2224 99.1234 -0.00012207 76.8906 -0.00012207 49.5783C-0.00012207 22.2661 22.2328 0.0332031 49.545 0.0332031C76.8573 0.0332031 99.0901 22.2661 99.0901 49.5783C99.0901 76.8906 76.8573 99.1234 49.545 99.1234ZM49.545 3.33272C24.0439 3.33272 3.29946 24.0772 3.29946 49.5783C3.29946 75.0795 24.0439 95.8239 49.545 95.8239C75.0462 95.8239 95.7906 75.0795 95.7906 49.5783C95.7906 24.0772 75.0462 3.33272 49.545 3.33272Z" fill="white"/>
<g id="Group">
<path id="Vector_2" d="M81.8732 14.2242L66.5349 29.5625L69.5525 32.5801L84.8908 17.2418L81.8732 14.2242Z" fill="white"/>
<path id="Vector_3" d="M29.0763 67.0231L13.738 82.3613L16.7556 85.3789L32.0939 70.0407L29.0763 67.0231Z" fill="white"/>
<path id="Vector_4" d="M70.0173 67.0203L66.9998 70.0378L82.338 85.3761L85.3556 82.3585L70.0173 67.0203Z" fill="white"/>
<path id="Vector_5" d="M16.7673 13.7593L13.7498 16.7769L29.0807 32.1078L32.0983 29.0902L16.7673 13.7593Z" fill="white"/>
</g>
<g id="Group_2">
<path id="Vector_6" d="M61.641 50.9107C62.6402 49.9115 62.6402 48.2981 61.641 47.3093L59.5176 45.1963C58.5183 44.1971 56.905 44.1971 55.9162 45.1963L54.7712 46.3413L53.4494 45.0194C52.4501 44.0202 50.8368 44.0202 49.848 45.0194L48.703 46.1747L47.3811 44.8424C46.3819 43.8432 44.7685 43.8432 43.7797 44.8424L36.7539 51.8683C36.7018 51.9203 36.7018 52.0036 36.7539 52.066C37.6907 53.0028 39.2208 53.0028 40.1679 52.066L44.6957 47.5383C45.1849 47.0491 45.9759 47.0491 46.4652 47.5383L46.7982 47.8714C46.8607 47.9338 46.8607 48.0275 46.7982 48.0899L43.0199 51.8683C42.9679 51.9203 42.9679 52.0036 43.0199 52.066C43.9567 53.0028 45.4867 53.0028 46.4339 52.066L50.7743 47.7257C51.2635 47.2364 52.0546 47.2364 52.5438 47.7257L52.8768 48.0587C52.9289 48.1107 52.9289 48.194 52.8768 48.2565L49.2338 51.8995C49.1818 51.9515 49.1818 52.0348 49.2338 52.0973C50.1706 53.034 51.7007 53.034 52.6479 52.0973L56.8425 47.9026C57.3317 47.4134 58.1228 47.4134 58.612 47.9026L59.3302 48.6208C59.6112 48.9018 59.6112 49.3702 59.3302 49.6512L59.2157 49.7657C58.9347 50.0468 58.4663 50.0468 58.1853 49.7657L57.2589 48.8394C57.2069 48.7873 57.1236 48.7873 57.0611 48.8394L55.4582 50.4423C55.4062 50.4943 55.4062 50.5776 55.4582 50.6401L56.905 52.0868C57.9043 53.0861 59.5176 53.0861 60.5064 52.0868L61.6514 50.9419L61.641 50.9107Z" fill="white"/>
<path id="Vector_7" d="M49.5462 11.5764C28.5624 11.5764 11.5547 28.5841 11.5547 49.5679C11.5547 70.5517 28.5624 87.5594 49.5462 87.5594C70.53 87.5594 87.5377 70.5517 87.5377 49.5679C87.5377 28.5841 70.53 11.5764 49.5462 11.5764ZM51.0971 23.3069C57.1965 23.6608 62.7339 26.0964 67.0223 29.906L61.5369 35.3914C58.6745 32.9662 55.0628 31.3945 51.0971 31.0614V23.3069ZM48.0057 23.3069V31.0614C44.04 31.3841 40.4282 32.9662 37.5659 35.3914L32.0805 29.906C36.3688 26.0964 41.9062 23.6608 48.0057 23.3069ZM29.8947 32.0918L35.38 37.5772C32.9548 40.4396 31.3831 44.0514 31.05 48.0171H23.2956C23.6495 41.9176 26.0851 36.3802 29.8947 32.0918ZM23.2956 51.1084H31.05C31.3727 55.0741 32.9548 58.6859 35.38 61.5483L29.8947 67.0336C26.0851 62.7453 23.6495 57.2079 23.2956 51.1084ZM48.0057 75.8185C41.9062 75.4646 36.3688 73.029 32.0805 69.2194L37.5659 63.7341C40.4282 66.1593 44.04 67.731 48.0057 68.0641V75.8185ZM33.5793 49.5575C33.5793 40.7414 40.7301 33.5907 49.5462 33.5907C58.3623 33.5907 65.513 40.7414 65.513 49.5575C65.513 58.3736 58.3623 65.5244 49.5462 65.5244C40.7301 65.5244 33.5793 58.3736 33.5793 49.5575ZM51.0971 75.8185V68.0641C55.0628 67.7414 58.6745 66.1593 61.5369 63.7341L67.0223 69.2194C62.7339 73.029 57.1965 75.4646 51.0971 75.8185ZM69.2081 67.0336L63.7228 61.5483C66.148 58.6859 67.7197 55.0741 68.0527 51.1084H75.8072C75.4533 57.2079 73.0176 62.7453 69.2081 67.0336ZM68.0527 48.0171C67.7301 44.0514 66.148 40.4396 63.7228 37.5772L69.2081 32.0918C73.0176 36.3802 75.4533 41.9176 75.8072 48.0171H68.0527Z" fill="white"/>
</g>
</g>
</svg>
