<svg width="100" height="100" viewBox="0 0 100 100" fill="none" xmlns="http://www.w3.org/2000/svg">
<g id="Soccer">
<path id="Vector" d="M50.1272 99.3893C22.8045 99.3893 0.582031 77.1564 0.582031 49.8442C0.582031 22.5319 22.8149 0.299072 50.1272 0.299072C77.4394 0.299072 99.6723 22.5319 99.6723 49.8442C99.6723 77.1564 77.4394 99.3893 50.1272 99.3893ZM50.1272 3.59859C24.626 3.59859 3.88161 24.343 3.88161 49.8442C3.88161 75.3453 24.626 96.0897 50.1272 96.0897C75.6283 96.0897 96.3727 75.3453 96.3727 49.8442C96.3727 24.343 75.6283 3.59859 50.1272 3.59859Z" fill="white"/>
<g id="Group">
<path id="Vector_2" d="M66.1977 18.8995C65.9479 18.8995 65.698 18.8474 65.4691 18.733C60.6707 16.3598 55.508 15.1524 50.1267 15.1524C44.7455 15.1524 39.5828 16.3598 34.7844 18.733C34.1495 19.0452 33.3897 18.9203 32.89 18.4206L24.3758 9.90639C24.0115 9.54208 23.8449 9.04246 23.9074 8.53244C23.9698 8.02242 24.2613 7.57486 24.6985 7.31465C32.3696 2.71403 41.1649 0.288818 50.1372 0.288818C59.1094 0.288818 67.9047 2.72444 75.5759 7.31465C76.013 7.57486 76.3044 8.02242 76.3669 8.53244C76.4293 9.04246 76.2524 9.54208 75.8985 9.90639L67.3842 18.4206C67.0615 18.7329 66.6453 18.8995 66.2081 18.8995H66.1977ZM50.1267 11.8528C55.6121 11.8528 60.8997 12.9978 65.8542 15.2564L72.0161 9.09455C65.3129 5.48275 57.7875 3.58834 50.1267 3.58834C42.466 3.58834 34.9405 5.48275 28.2373 9.09455L34.3993 15.2564C39.3538 12.9978 44.6414 11.8528 50.1267 11.8528Z" fill="white"/>
<path id="Vector_3" d="M50.1249 99.3893C41.1527 99.3893 32.3574 96.9537 24.6862 92.3635C24.2491 92.1032 23.9576 91.6556 23.8952 91.1456C23.8327 90.6356 24.0097 90.136 24.3636 89.7717L32.8778 81.2574C33.3774 80.7578 34.1477 80.6329 34.7722 80.9451C39.5706 83.3183 44.7333 84.5257 50.1145 84.5257C55.4958 84.5257 60.6585 83.3183 65.4569 80.9451C66.0918 80.6329 66.8516 80.7578 67.3512 81.2574L75.8655 89.7717C76.2298 90.136 76.3963 90.6356 76.3339 91.1456C76.2714 91.6556 75.98 92.1032 75.5428 92.3635C67.8717 96.9641 59.0764 99.3893 50.1041 99.3893H50.1249ZM28.2356 90.5836C34.9387 94.1954 42.4642 96.0897 50.1249 96.0897C57.7857 96.0897 65.3111 94.1954 72.0143 90.5836L65.8524 84.4217C60.8979 86.6803 55.6103 87.8252 50.1249 87.8252C44.6396 87.8252 39.352 86.6803 34.3975 84.4217L28.2356 90.5836Z" fill="white"/>
<path id="Vector_4" d="M91.2328 76.074C90.7957 76.074 90.3793 75.9075 90.0671 75.5952L81.5528 67.081C81.0532 66.5814 80.9283 65.8111 81.2406 65.1866C83.6137 60.3882 84.8211 55.2255 84.8211 49.8443C84.8211 44.463 83.6137 39.3003 81.2406 34.502C80.9283 33.867 81.0532 33.0968 81.5528 32.6076L90.0671 24.0933C90.4314 23.729 90.931 23.5625 91.441 23.6249C91.951 23.6874 92.3986 23.9788 92.6588 24.416C97.2594 32.0871 99.6846 40.8824 99.6846 49.8547C99.6846 58.8269 97.2594 67.6222 92.6588 75.2934C92.3986 75.7306 91.951 76.022 91.441 76.0845C91.3681 76.0845 91.3057 76.0845 91.2328 76.0845V76.074ZM84.7066 65.5613L90.8685 71.7232C94.4803 65.0201 96.3747 57.4946 96.3747 49.8339C96.3747 42.1731 94.4803 34.6477 90.8685 27.9445L84.7066 34.1064C86.9653 39.0609 88.1102 44.3485 88.1102 49.8339C88.1102 55.3192 86.9653 60.6068 84.7066 65.5613Z" fill="white"/>
<path id="Vector_5" d="M9.02348 76.0741C8.95062 76.0741 8.88817 76.0741 8.82572 76.0636C8.31569 76.0012 7.86808 75.7097 7.60786 75.2726C3.00724 67.6014 0.582031 58.8061 0.582031 49.8339C0.582031 40.8616 3.00724 32.0664 7.60786 24.3952C7.86808 23.9581 8.31569 23.6666 8.82572 23.6042C9.33574 23.5417 9.83536 23.7186 10.1997 24.0725L18.7139 32.5868C19.2135 33.0864 19.3384 33.8566 19.0262 34.4811C16.653 39.2795 15.4456 44.4423 15.4456 49.8235C15.4456 55.2048 16.653 60.3675 19.0262 65.1658C19.3384 65.8008 19.2135 66.571 18.7139 67.0602L10.1997 75.5745C9.88741 75.8867 9.471 76.0636 9.03384 76.0636L9.02348 76.0741ZM9.38776 27.9445C5.77596 34.6477 3.88161 42.1731 3.88161 49.8339C3.88161 57.4946 5.77596 65.0201 9.38776 71.7233L15.5497 65.5614C13.291 60.6069 12.1461 55.3192 12.1461 49.8339C12.1461 44.3485 13.291 39.0609 15.5497 34.1064L9.38776 27.9445Z" fill="white"/>
</g>
<path id="Vector_6" d="M50.1282 11.8528C29.1861 11.8528 12.1367 28.8917 12.1367 49.8443C12.1367 70.7969 29.1757 87.8358 50.1282 87.8358C71.0808 87.8358 88.1198 70.7969 88.1198 49.8443C88.1198 28.8917 71.0808 11.8528 50.1282 11.8528ZM71.5075 37.3644C73.3082 40.4453 74.4011 43.8073 74.755 47.3775C74.7654 47.5232 74.703 47.6585 74.5781 47.7314C71.8615 49.3968 69.4258 51.4368 67.3233 53.8204C67.2296 53.9349 67.0735 53.9766 66.9381 53.9245L62.2439 52.3944C62.1086 52.3528 62.0149 52.2383 61.994 52.0926C61.4632 48.2102 60.2559 44.4943 58.4031 41.0386C58.3407 40.9137 58.351 40.768 58.4343 40.6535L61.3383 36.6566C61.4112 36.5629 61.5257 36.5004 61.6402 36.5004C61.6714 36.5004 61.6922 36.5004 61.7235 36.5004C64.8252 37.1874 68.0102 37.4164 71.1745 37.1562C71.3202 37.1458 71.4555 37.2186 71.5284 37.3435L71.5075 37.3644ZM59.4336 52.7484C59.444 52.8524 59.4127 52.9565 59.3503 53.0293C56.8834 55.8709 53.74 58.1504 50.274 59.6076C50.1803 59.6492 50.0866 59.6492 49.9929 59.6076C46.5268 58.14 43.3834 55.8605 40.9166 53.0293C40.8541 52.9565 40.8229 52.8524 40.8333 52.7484C41.3121 48.9804 42.4883 45.379 44.3098 42.0482C44.3618 41.9546 44.4451 41.8921 44.5492 41.8713C46.3811 41.4862 48.2547 41.2884 50.1387 41.2884C52.0226 41.2884 53.8962 41.4862 55.7281 41.8713C55.8322 41.8921 55.9154 41.9546 55.9675 42.0482C57.789 45.379 58.9548 48.9804 59.444 52.7484H59.4336ZM58.8715 26.9141C58.8715 26.9141 58.9964 26.81 59.1213 26.81C59.1629 26.81 59.2149 26.81 59.267 26.8412C63.0974 28.3609 66.5218 30.859 69.1864 34.0544C69.3218 34.2105 69.2697 34.3771 69.2385 34.4395C69.2177 34.4916 69.124 34.6581 68.9054 34.6581C66.5426 34.6894 64.1903 34.4187 61.9108 33.8775C61.8171 33.8567 61.7338 33.7942 61.6818 33.7109C60.464 31.7021 59.4856 29.5371 58.7778 27.2888C58.7154 27.091 58.8298 26.9557 58.8819 26.9141H58.8715ZM44.8719 25.6651C48.3171 24.926 51.9497 24.926 55.395 25.6651C55.5303 25.6963 55.6448 25.8004 55.676 25.9357C56.415 29.0271 57.612 31.9831 59.2254 34.7206C59.2982 34.8455 59.2878 35.0016 59.2045 35.1265L56.3214 39.1026C56.2381 39.2171 56.0924 39.2795 55.957 39.2483C52.1475 38.4781 48.1193 38.4781 44.3098 39.2483C44.1745 39.2795 44.0288 39.2171 43.9455 39.1026L41.0623 35.1265C40.979 35.012 40.9686 34.8455 41.0415 34.7206C42.6548 31.9831 43.8518 29.0271 44.5908 25.9357C44.6221 25.8004 44.7366 25.6963 44.8719 25.6651ZM31.0804 34.0544C33.7451 30.8486 37.1695 28.3505 40.9998 26.8412C41.0519 26.8204 41.1039 26.81 41.1456 26.81C41.2809 26.81 41.3642 26.8829 41.3954 26.9141C41.4474 26.9662 41.5619 27.091 41.4994 27.2888C40.7917 29.5475 39.8133 31.7021 38.5955 33.7109C38.5434 33.7942 38.4602 33.8567 38.3665 33.8775C36.087 34.4187 33.7346 34.6894 31.3719 34.6581C31.1533 34.6581 31.0596 34.4916 31.0388 34.4395C31.0075 34.3771 30.9555 34.2105 31.0908 34.0544H31.0804ZM28.7593 37.3644C28.8217 37.2499 28.9466 37.177 29.0819 37.177C29.0819 37.177 29.1028 37.177 29.1132 37.177C32.2878 37.4268 35.4729 37.2082 38.5643 36.5213C38.71 36.49 38.8557 36.5421 38.939 36.667L41.8429 40.6639C41.9262 40.7784 41.9366 40.9346 41.8742 41.0491C40.0215 44.5047 38.814 48.2206 38.2832 52.103C38.2624 52.2383 38.1687 52.3528 38.0334 52.4049L33.3391 53.9349C33.2038 53.9765 33.0477 53.9349 32.954 53.8308C30.8514 51.4473 28.4158 49.4072 25.6991 47.7418C25.5846 47.6689 25.5118 47.5336 25.5222 47.3879C25.8761 43.8177 26.969 40.4453 28.7697 37.3748L28.7593 37.3644ZM29.8938 63.0112C29.8314 63.209 29.6545 63.2506 29.5816 63.261C29.5087 63.261 29.3422 63.2611 29.2277 63.0945C27.0106 59.6076 25.6991 55.5691 25.4389 51.4264C25.4285 51.2183 25.5638 51.1142 25.6263 51.0829C25.6887 51.0517 25.8553 50.9789 26.0218 51.1038C27.9474 52.4673 29.6961 54.0702 31.2261 55.8501C31.2886 55.923 31.3198 56.0167 31.3094 56.1207C31.1221 58.4627 30.6433 60.7838 29.8834 63.0217L29.8938 63.0112ZM40.1776 72.5143C36.9301 71.0884 34.0677 68.9962 31.6737 66.3108C31.58 66.2067 31.5488 66.0506 31.6009 65.9257C32.8187 62.9904 33.5889 59.899 33.8907 56.7348C33.9011 56.5891 34.0053 56.4642 34.1406 56.4226L38.7828 54.9133C38.7828 54.9133 38.8556 54.8925 38.8973 54.8925C39.0014 54.8925 39.0951 54.9342 39.1679 55.0174C41.7701 57.9318 45.028 60.305 48.5981 61.8767C48.7334 61.9391 48.8167 62.064 48.8167 62.2098V67.0914C48.8167 67.2371 48.7334 67.3725 48.5981 67.4245C45.6837 68.6839 42.9775 70.3806 40.5523 72.4519C40.4482 72.5456 40.2921 72.5664 40.1672 72.5039L40.1776 72.5143ZM56.5503 73.5448C56.5399 73.6176 56.4879 73.7842 56.2797 73.8363C52.262 74.8563 48.0153 74.8563 43.9975 73.8363C43.7998 73.7842 43.7373 73.6176 43.7269 73.5448C43.7165 73.4719 43.6957 73.3054 43.8726 73.1701C45.767 71.7649 47.8279 70.5887 50.0033 69.6832C50.097 69.6415 50.1907 69.6415 50.2843 69.6832C52.4493 70.5887 54.5103 71.7649 56.415 73.1701C56.5816 73.295 56.5712 73.4719 56.5608 73.5448H56.5503ZM68.614 66.3212C66.22 69.0066 63.3576 71.0884 60.1101 72.5143C59.9748 72.5768 59.8291 72.5456 59.725 72.4623C57.2998 70.391 54.6039 68.6944 51.6791 67.4349C51.5438 67.3725 51.4605 67.2476 51.4605 67.1018V62.2202C51.4605 62.0745 51.5438 61.9391 51.6791 61.8871C55.2493 60.3154 58.5176 57.9423 61.1093 55.0278C61.1822 54.9446 61.2759 54.9029 61.38 54.9029C61.4216 54.9029 61.4528 54.9029 61.4944 54.9237L66.1367 56.433C66.272 56.4746 66.3761 56.5995 66.3865 56.7452C66.6884 59.9095 67.4586 62.9904 68.6764 65.9361C68.7285 66.061 68.7076 66.2171 68.6036 66.3212H68.614ZM71.0496 63.1049C70.9351 63.2818 70.7582 63.2819 70.6957 63.2715C70.6228 63.2715 70.4563 63.2194 70.3834 63.0217C69.634 60.7838 69.1552 58.4627 68.9574 56.1207C68.9574 56.0271 68.9783 55.923 69.0407 55.8501C70.5708 54.0702 72.3194 52.4777 74.245 51.1038C74.3179 51.0517 74.3908 51.0309 74.4532 51.0309C74.5365 51.0309 74.5989 51.0621 74.6406 51.0829C74.703 51.1142 74.8487 51.2183 74.8279 51.4264C74.5677 55.5691 73.2562 59.6076 71.0392 63.0945L71.0496 63.1049Z" fill="white"/>
</g>
</svg>
