<svg xmlns="http://www.w3.org/2000/svg" viewBox="0 0 220.25 99.17"><defs><style>.cls-1{fill:#478bf9;}</style></defs><g id="Слой_2" data-name="Слой 2"><g id="Слой_1-2" data-name="Слой 1"><g id="_" data-name="$"><g id="Group"><path id="Vector" class="cls-1" d="M170.69.06a49.56,49.56,0,1,1-49.55,49.56A49.62,49.62,0,0,1,170.69.06Zm0,95.54a46,46,0,1,0-46-46A46,46,0,0,0,170.69,95.6Z"/><path id="Vector_2" data-name="Vector 2" class="cls-1" d="M49.56.06a1.78,1.78,0,1,1,0,3.56,46,46,0,1,0,0,92,1.78,1.78,0,0,1,0,3.56A49.56,49.56,0,1,1,49.56,0Z"/><g id="Group_2" data-name="Group 2"><path id="Vector_3" data-name="Vector 3" class="cls-1" d="M161.94,59.16a4,4,0,0,0,3.84-3l.84-3.36H158v2.39a4,4,0,0,0,4,4Z"/><path id="Vector_4" data-name="Vector 4" class="cls-1" d="M183.41,46.44V44.05a4,4,0,0,0-7.81-1l-.84,3.36h8.65Z"/><path id="Vector_5" data-name="Vector 5" class="cls-1" d="M130.37,49.62A40.33,40.33,0,1,0,170.7,9.28,40.38,40.38,0,0,0,130.37,49.62Zm34-15.91v6.36h-3.18A3.2,3.2,0,0,0,158,43.26v3.18H168.2l1.23-4.9a10.32,10.32,0,0,1,20.34,2.51v2.39h8.06V52.8h-8.06V56a9.55,9.55,0,0,1-9.54,9.54H177V59.17h3.19A3.19,3.19,0,0,0,183.41,56V52.8H173.17l-1.23,4.9a10.32,10.32,0,0,1-20.34-2.5V52.8h-8V46.44h8V43.26a9.56,9.56,0,0,1,9.55-9.55Z"/></g></g><g id="Group_3" data-name="Group 3"><path id="Vector_6" data-name="Vector 6" class="cls-1" d="M48.8,0H168.39a1.78,1.78,0,1,1,0,3.56H48.8A1.78,1.78,0,1,1,48.8,0Z"/></g><g id="Group_4" data-name="Group 4"><path id="Vector_7" data-name="Vector 7" class="cls-1" d="M48.54,95.54H168.13a1.78,1.78,0,1,1,0,3.55H48.54a1.78,1.78,0,1,1,0-3.55Z"/></g></g></g></g></svg>